<svg xmlns="http://www.w3.org/2000/svg" xmlns:xlink="http://www.w3.org/1999/xlink" width="500" zoomAndPan="magnify" viewBox="0 0 375 374.999991" height="500" preserveAspectRatio="xMidYMid meet" version="1.0"><defs><clipPath id="id1"><path d="M 63.554688 0 L 293 0 L 293 375 L 63.554688 375 Z M 63.554688 0 " clip-rule="nonzero"/></clipPath><clipPath id="id2"><path d="M 63.554688 167 L 106 167 L 106 210 L 63.554688 210 Z M 63.554688 167 " clip-rule="nonzero"/></clipPath></defs><g clip-path="url(#id1)"><path fill="#03989e" d="M 251.007812 237.753906 L 251.007812 291.601562 C 251.007812 314.613281 232.363281 333.261719 209.363281 333.261719 L 186.503906 333.261719 C 176.128906 333.261719 167.71875 324.851562 167.71875 314.472656 L 167.71875 52.042969 C 167.71875 23.277344 144.410156 -0.0390625 115.652344 -0.0390625 C 86.921875 -0.0390625 63.589844 23.253906 63.589844 52.042969 L 63.589844 107.667969 C 63.589844 119.175781 72.917969 128.503906 84.417969 128.503906 C 95.917969 128.503906 105.246094 119.175781 105.246094 107.667969 L 105.246094 52.015625 C 105.246094 38.257812 126.0625 38.238281 126.0625 52.015625 L 126.0625 322.851562 C 126.0625 336.609375 105.246094 336.628906 105.246094 322.851562 L 105.246094 267.230469 C 105.246094 255.722656 95.921875 246.390625 84.417969 246.390625 C 72.917969 246.390625 63.589844 255.722656 63.589844 267.230469 L 63.589844 338.121094 C 63.589844 358.457031 80.070312 374.9375 100.390625 374.9375 L 221.101562 374.9375 C 260.621094 374.9375 292.664062 342.886719 292.664062 303.351562 C 292.664062 232.402344 294.507812 230.96875 286.558594 223.019531 C 273.441406 209.890625 251.007812 219.1875 251.007812 237.753906 " fill-opacity="1" fill-rule="nonzero"/></g><g clip-path="url(#id2)"><path fill="#03989e" d="M 105.246094 188.164062 C 105.246094 199.671875 95.921875 209.003906 84.417969 209.003906 C 72.917969 209.003906 63.589844 199.671875 63.589844 188.164062 C 63.589844 176.660156 72.917969 167.328125 84.417969 167.328125 C 95.921875 167.328125 105.246094 176.660156 105.246094 188.164062 " fill-opacity="1" fill-rule="nonzero"/></g></svg>